<svg xmlns="http://www.w3.org/2000/svg" xmlns:xlink="http://www.w3.org/1999/xlink" version="1.1" x="0px" y="0px" viewBox="0 0 226.4 37.5" style="enable-background:new 0 0 226.4 37.5;" xml:space="preserve" class="mdl-js h-100">
<style type="text/css">
    .st0 {
        fill: url(#SVGID_1_);
    }

    .st1 {
        fill: url(#SVGID_2_);
    }

    .st2 {
        fill: url(#SVGID_3_);
    }

    .st3 {
        fill: url(#SVGID_4_);
    }

    .st4 {
        fill: url(#SVGID_5_);
    }

    .st5 {
        fill: url(#SVGID_6_);
    }

    .st6 {
        fill: url(#SVGID_7_);
    }

    .st7 {
        fill: #696CFF;
    }

    .st8 {
        fill: url(#SVGID_8_);
    }

    .st9 {
        fill: url(#SVGID_9_);
    }

    .st10 {
        fill: url(#SVGID_10_);
    }

    .st11 {
        fill: url(#SVGID_11_);
    }

    .st12 {
        fill: url(#SVGID_12_);
    }

    .st13 {
        fill: url(#SVGID_13_);
    }

    .st14 {
        fill: #566A7F;
    }

    .st15 {
        opacity: 0.1;
    }

    .st16 {
        fill: #19EDD0;
    }

    .st17 {
        opacity: 0.55;
        fill: #19EDD0;
    }
</style>
<g id="Background">
</g>
<g id="Objects">
                        <g class="app-brand-logo">
		
                        <linearGradient id="SVGID_1_" gradientUnits="userSpaceOnUse" x1="16.4042" y1="156.8554" x2="29.2716" y2="162.2251" gradientTransform="matrix(0.9798 -0.2001 0.2001 0.9798 -32.0525 -140.2788)">
                        <stop offset="0" style="stop-color:#8C15E8"></stop>
                        <stop offset="0.9588" style="stop-color:#241645"></stop>
		</linearGradient>
                        <path class="st0" d="M30.8,12.2c0,0-3-1.4-7.1-1.6c0,0-1,0.1-1.1,1c-0.1,0.9,0.7,1.4,1.3,1.4c0.6,0,3.5,0.3,5.5,1.1    C29.5,14.2,30.7,13,30.8,12.2z"></path>
		
                        <linearGradient id="SVGID_2_" gradientUnits="userSpaceOnUse" x1="12.5772" y1="151.3344" x2="33.8896" y2="160.8624" gradientTransform="matrix(0.9798 -0.2001 0.2001 0.9798 -32.0525 -140.2788)">
                        <stop offset="0.2081" style="stop-color:#1E82EA"></stop>
                        <stop offset="0.2898" style="stop-color:#1E7DE2"></stop>
                        <stop offset="0.417" style="stop-color:#1C6ECC"></stop>
                        <stop offset="0.574" style="stop-color:#1B57A8"></stop>
                        <stop offset="0.7545" style="stop-color:#183776"></stop>
                        <stop offset="0.9525" style="stop-color:#150E36"></stop>
                        <stop offset="1" style="stop-color:#140326"></stop>
		</linearGradient>
                        <path class="st1" d="M31.3,8.7c0,0-2-1.6-5.3-1.9c0,0-1.9,0-1.9,1.7c0,1.6,1.2,2.3,2,2.4c0.8,0.1,2.8,0.5,4.6,1.3    C30.8,12.2,31.9,10.7,31.3,8.7z"></path>
		
                        <linearGradient id="SVGID_3_" gradientUnits="userSpaceOnUse" x1="7.1959" y1="161.6638" x2="22.0469" y2="155.8487" gradientTransform="matrix(0.9798 -0.2001 0.2001 0.9798 -32.0525 -140.2788)">
                        <stop offset="4.116590e-02" style="stop-color:#241645"></stop>
                        <stop offset="1" style="stop-color:#8C15E8"></stop>
		</linearGradient>
                        <path class="st2" d="M12.8,14.9c-2.3,0.9-5,2.2-7.2,4.3c0,0-1.5-0.7-1.9-1.4c0,0,2.9-3.3,8.6-5.4c0,0,1.2-0.4,1.5,0.7    C14.2,14.4,12.8,14.9,12.8,14.9z"></path>
		
                        <linearGradient id="SVGID_4_" gradientUnits="userSpaceOnUse" x1="-0.1779" y1="161.1934" x2="27.0714" y2="150.5235" gradientTransform="matrix(0.9798 -0.2001 0.2001 0.9798 -32.0525 -140.2788)">
                        <stop offset="0" style="stop-color:#140326"></stop>
                        <stop offset="0.2653" style="stop-color:#18306C"></stop>
                        <stop offset="0.6277" style="stop-color:#1C6BC6"></stop>
                        <stop offset="0.7919" style="stop-color:#1E82EA"></stop>
		</linearGradient>
                        <path class="st3" d="M3.7,17.8c0,0,3.7-3.9,9.5-5.7c0,0,1.9-0.7,1.5-2.7c-0.5-2-2.3-1.5-2.3-1.5S5.3,9.8,1.9,14.7    C1.9,14.7,1.9,16.8,3.7,17.8z"></path>
		
                        <linearGradient id="SVGID_5_" gradientUnits="userSpaceOnUse" x1="2.228" y1="154.914" x2="16.0043" y2="154.914" gradientTransform="matrix(0.9798 -0.2001 0.2001 0.9798 -32.0525 -140.2788)">
                        <stop offset="0.2056" style="stop-color:#241645"></stop>
                        <stop offset="0.3004" style="stop-color:#2A164F"></stop>
                        <stop offset="0.4605" style="stop-color:#3B1669"></stop>
                        <stop offset="0.6665" style="stop-color:#571694"></stop>
                        <stop offset="0.9077" style="stop-color:#7C15CF"></stop>
                        <stop offset="1" style="stop-color:#8C15E8"></stop>
		</linearGradient>
                        <path class="st4" d="M13.1,7.6c-8.4,2.5-11.2,7.1-11.2,7.1c-0.6-1.5,0.8-3.4,0.8-3.4c2.6-3.6,6.8-5.5,9.7-6.4c0,0,1.3-0.4,1.8,0.9    C14.5,7.1,13.1,7.6,13.1,7.6z"></path>
		
                        <linearGradient id="SVGID_6_" gradientUnits="userSpaceOnUse" x1="21.884" y1="157.829" x2="35.1122" y2="157.829" gradientTransform="matrix(0.9798 -0.2001 0.2001 0.9798 -32.0525 -140.2788)">
                        <stop offset="0" style="stop-color:#8C15E8"></stop>
                        <stop offset="9.230176e-02" style="stop-color:#7C15CF"></stop>
                        <stop offset="0.3335" style="stop-color:#571694"></stop>
                        <stop offset="0.5395" style="stop-color:#3B1669"></stop>
                        <stop offset="0.6996" style="stop-color:#2A164F"></stop>
                        <stop offset="0.7944" style="stop-color:#241645"></stop>
		</linearGradient>
                        <path class="st5" d="M21.8,6.4c4.8,0,11.2,1.1,13.4,6.9c0,0-1.2-4.5-6.6-7.9c0,0-2.5-1.6-7-1.9c-0.4,0-0.8,0.1-1.1,0.3    c-0.3,0.2-0.5,0.5-0.5,1C20,6,21,6.4,21.8,6.4z"></path>
                        <path class="st7" d="M25.4,17.7c-0.9-0.8-2-1.4-3.3-2c-0.4-0.2-1.6-0.6-3.6-1.3c-1.7-0.6-2.9-1.2-3.6-2c-0.6-0.7-0.8-1.4-0.8-2.3    c0-1.1,0.3-2,1-2.7c0.6-0.7,1.5-1.1,2.5-1.1c1.1,0,2,0.4,2.8,1.1c0.8,0.7,1.2,1.6,1.2,2.6c0,1.9,1.5,3.4,3.4,3.4    c1.9,0,3.4-1.5,3.4-3.4c0-2.7-1-5.1-3.1-7.1c-2.1-2-4.5-3-7.2-3c-2.9,0-5.3,1-7.3,2.9c-2,1.9-3.1,4.3-3.1,7.1    c0,0.6,0.1,1.3,0.2,1.9c0.1,0.6,0.3,1.2,0.6,1.8c0.5,1.2,1.2,2.3,2,3.1c0.8,0.8,1.8,1.5,2.9,2c0.6,0.3,1.7,0.7,3.3,1.2    c1.3,0.4,2.2,0.8,2.9,1.1c1.1,0.6,1.8,1.2,2.3,1.8c0.6,0.8,0.9,1.8,0.9,3.1c0,1.3-0.5,2.3-1.4,3.2c-0.5,0.4-0.9,0.7-1.5,0.9    c-0.5,0.2-1.1,0.3-1.7,0.3c-1.4,0-2.5-0.4-3.4-1.2c-1-0.8-1.5-1.9-1.5-3.3c0-1.9-1.5-3.4-3.4-3.4s-3.4,1.5-3.4,3.4    c0,3,1.1,5.6,3.4,7.7c2.3,2.1,4.9,3.1,8,3.1c3.2,0,5.8-1.1,8.1-3.2s3.4-4.8,3.4-7.9C29.1,22.4,27.8,19.7,25.4,17.7z"></path>
                        <g>
			
                        <linearGradient id="SVGID_7_" gradientUnits="userSpaceOnUse" x1="29.9042" y1="176.12" x2="36.3877" y2="174.4238" gradientTransform="matrix(0.9798 -0.2001 0.2001 0.9798 -32.0525 -140.2788)">
                        <stop offset="0" style="stop-color:#8C15E8"></stop>
                        <stop offset="0.9588" style="stop-color:#241645"></stop>
			</linearGradient>
                        <path class="st6" d="M32.5,28c0,0-0.7,0.6-0.5,1.4c0.2,0.8,0.7,0.8,1.2,0.4s2.8-2.9,3.4-5.5c0,0,0.4-2.2,0.3-4.1     C36.9,20.2,37.2,24.2,32.5,28z"></path>
			
                        <linearGradient id="SVGID_8_" gradientUnits="userSpaceOnUse" x1="17.118" y1="168.7444" x2="35.5198" y2="160.9247" gradientTransform="matrix(0.9798 -0.2001 0.2001 0.9798 -32.0525 -140.2788)">
                        <stop offset="0" style="stop-color:#19EDD0"></stop>
                        <stop offset="0.126" style="stop-color:#24D9D2"></stop>
                        <stop offset="0.3846" style="stop-color:#3FA5D8"></stop>
                        <stop offset="0.7496" style="stop-color:#6C52E1"></stop>
                        <stop offset="1" style="stop-color:#8C15E8"></stop>
			</linearGradient>
                        <path class="st8" d="M20.4,19.4c0,0,7.3-2,10.1-6.5s-1.3-7.1-1.9-7.3c0,0,3.8,1.7,6.3,6.9c2.5,5.2-3.7,11.4-12.4,14.1     c0,0-4.6,1.7-5.4-2.4C16.2,20,20.4,19.4,20.4,19.4z"></path>
			
                        <linearGradient id="SVGID_9_" gradientUnits="userSpaceOnUse" x1="19.9911" y1="175.5024" x2="38.0336" y2="168.4376" gradientTransform="matrix(0.9798 -0.2001 0.2001 0.9798 -32.0525 -140.2788)">
                        <stop offset="4.116590e-02" style="stop-color:#1E82EA"></stop>
                        <stop offset="0.8496" style="stop-color:#8C15E8"></stop>
			</linearGradient>
                        <path class="st9" d="M25.6,25.3c0,0-3.4,1.3-2.5,4.4c0.9,3.1,4.2,1.5,4.2,1.5s9.1-3.9,9.5-10.9c0,0,0.1-3.1-1.8-7.5     C35.1,12.8,37.9,19.7,25.6,25.3z"></path>
		</g>
                        <g>
			
                        <linearGradient id="SVGID_10_" gradientUnits="userSpaceOnUse" x1="-1.1114" y1="170.7496" x2="9.2838" y2="170.7496" gradientTransform="matrix(0.9798 -0.2001 0.2001 0.9798 -32.0525 -140.2788)">
                        <stop offset="0" style="stop-color:#8C15E8"></stop>
                        <stop offset="1" style="stop-color:#1E82EA"></stop>
			</linearGradient>
                        <path class="st10" d="M0.1,19.5c0,0-0.5,3.8,1.4,8.5c0,0,1.7,3.6,7.5,5.1c0.5,0.1,1,0.2,1.4,0.1c0.9-0.1,2.1-0.5,1.9-2     c-0.2-2.2-1.5-3.4-3.3-3.8C7.2,27,0.5,25.4,0.1,19.5z"></path>
			
                        <linearGradient id="SVGID_11_" gradientUnits="userSpaceOnUse" x1="0.2035" y1="177.8593" x2="8.5503" y2="176.1928" gradientTransform="matrix(0.9798 -0.2001 0.2001 0.9798 -32.0525 -140.2788)">
                        <stop offset="4.116590e-02" style="stop-color:#241645"></stop>
                        <stop offset="1" style="stop-color:#8C15E8"></stop>
			</linearGradient>
                        <path class="st11" d="M1.5,28c0,0,2.5,5.4,12.7,5.9c0,0,1.1,0,1.5,1c0.4,1-0.5,1.3-1.2,1.3c0,0-6.6,0-11-4.5     C3.6,31.6,2.1,29.4,1.5,28z"></path>
			
                        <linearGradient id="SVGID_12_" gradientUnits="userSpaceOnUse" x1="7.1026" y1="164.9509" x2="-1.1025" y2="160.2397" gradientTransform="matrix(0.9798 -0.2001 0.2001 0.9798 -32.0525 -140.2788)">
                        <stop offset="0" style="stop-color:#19EDD0"></stop>
                        <stop offset="1" style="stop-color:#8C15E8"></stop>
			</linearGradient>
                        <path class="st12" d="M5.3,18.9c0,0,2.2,1.2,1.8,4.2c-0.4,3-2.4,2.6-3.2,2.3c-0.8-0.3-3.9-2.6-3.8-6.5c0,0,0.2-3.5,2.6-7.6     C2.7,11.4-0.4,15.5,5.3,18.9z"></path>
		</g>
	</g>
                        <g class="app-brand-text">
                        <g>
                        <path class="st7" d="M44.9,20c-1.2,0-2.2-0.1-3.2-0.3s-1.7-0.5-2.5-0.9v-3.7h0.4c0.8,0.7,1.6,1.2,2.6,1.5     c0.9,0.4,1.9,0.5,2.7,0.5c0.2,0,0.5,0,0.9-0.1c0.4,0,0.7-0.1,0.9-0.2c0.3-0.1,0.5-0.3,0.7-0.5c0.2-0.2,0.3-0.5,0.3-0.8     c0-0.4-0.2-0.7-0.5-1s-0.7-0.4-1.1-0.5c-0.5-0.1-1.1-0.3-1.7-0.4c-0.6-0.1-1.2-0.3-1.7-0.5c-1.2-0.4-2.1-1-2.6-1.7     c-0.5-0.7-0.8-1.6-0.8-2.7c0-1.5,0.6-2.6,1.9-3.6c1.2-0.9,2.8-1.4,4.6-1.4c0.9,0,1.9,0.1,2.8,0.3c0.9,0.2,1.7,0.4,2.5,0.8v3.6     h-0.3c-0.6-0.5-1.3-0.9-2.1-1.3c-0.8-0.3-1.7-0.5-2.6-0.5c-0.3,0-0.7,0-0.9,0.1S44.5,6.8,44.2,7c-0.2,0.1-0.5,0.3-0.6,0.5     c-0.2,0.2-0.3,0.5-0.3,0.7c0,0.4,0.1,0.7,0.4,0.9s0.8,0.4,1.6,0.6c0.5,0.1,1,0.2,1.5,0.3s1,0.3,1.6,0.5c1.1,0.4,1.9,0.9,2.4,1.6     c0.5,0.7,0.8,1.5,0.8,2.6c0,1.6-0.6,2.8-1.8,3.7C48.6,19.5,46.9,20,44.9,20z"></path>
                        <path class="st7" d="M56.6,19.7V7.1H52v-3h13.2v3h-4.6v12.6H56.6z"></path>
                        <path class="st7" d="M73.1,20c-2.1,0-3.7-0.5-4.8-1.5c-1.1-1-1.7-2.5-1.7-4.4v-10h3.9v9.7c0,1.1,0.2,1.9,0.6,2.4s1.1,0.8,2,0.8     c0.9,0,1.6-0.3,2-0.8c0.4-0.5,0.6-1.3,0.6-2.5V4.1h3.9v10c0,1.9-0.6,3.4-1.7,4.4S75.3,20,73.1,20z"></path>
                        <path class="st7" d="M96.6,11.9c0,1.5-0.3,2.8-1,3.9c-0.6,1.2-1.4,2-2.4,2.6c-0.8,0.5-1.7,0.9-2.6,1s-2,0.2-3,0.2h-4.9V4.1h4.8     c1.1,0,2.1,0.1,3.1,0.2c1,0.1,1.9,0.5,2.7,1c1,0.7,1.8,1.5,2.4,2.7S96.6,10.4,96.6,11.9z M92.6,11.9c0-1-0.2-1.9-0.5-2.6     c-0.4-0.7-0.9-1.3-1.6-1.7c-0.5-0.3-1.1-0.5-1.7-0.5s-1.3,0-2.1,0h-0.1v9.8h0.1c0.9,0,1.6,0,2.2,0c0.6,0,1.2-0.2,1.7-0.6     c0.6-0.4,1.1-1,1.5-1.7S92.6,12.9,92.6,11.9z"></path>
                        <path class="st7" d="M98.9,19.7V4.1h10.6v3h-6.7v2.7h6.1v3h-6.1v3.9h6.7v3H98.9z"></path>
                        <path class="st7" d="M125.6,19.7h-3.8l-6-10.9v10.9h-3.6V4.1h4.8l5,8.9V4.1h3.6V19.7z"></path>
                        <path class="st7" d="M131.7,19.7V7.1h-4.6v-3h13.2v3h-4.6v12.6H131.7z"></path>
                        <path class="st14" d="M153.9,9c0,0.7-0.1,1.4-0.3,2.1c-0.2,0.7-0.6,1.2-1,1.6c-0.3,0.3-0.6,0.5-0.9,0.8c-0.3,0.2-0.7,0.4-1.1,0.6     c-0.4,0.2-0.8,0.3-1.3,0.4c-0.5,0.1-1,0.1-1.5,0.1h-2.1v5.1h-3.9V4.1h6.1c0.9,0,1.7,0.1,2.3,0.2c0.7,0.2,1.2,0.4,1.8,0.8     c0.6,0.4,1,0.9,1.4,1.6C153.7,7.3,153.9,8.1,153.9,9z M149.9,9.1c0-0.4-0.1-0.8-0.3-1.1c-0.2-0.3-0.5-0.5-0.8-0.7     c-0.4-0.2-0.7-0.3-1.1-0.3c-0.3,0-0.8,0-1.4,0h-0.6v4.7h0.3c0.4,0,0.7,0,1,0c0.3,0,0.6,0,0.9-0.1c0.2,0,0.4-0.1,0.7-0.2     c0.2-0.1,0.4-0.2,0.5-0.3c0.3-0.3,0.4-0.5,0.5-0.8S149.9,9.6,149.9,9.1z"></path>
                        <path class="st14" d="M170.2,11.9c0,2.5-0.7,4.5-2,6c-1.3,1.4-3.2,2.2-5.5,2.2c-2.4,0-4.2-0.7-5.5-2.2c-1.3-1.5-2-3.4-2-5.9     c0-2.5,0.7-4.5,2-6c1.3-1.5,3.2-2.2,5.5-2.2c2.3,0,4.2,0.7,5.5,2.2C169.6,7.4,170.2,9.4,170.2,11.9z M166.2,11.9     c0-0.9-0.1-1.7-0.3-2.4c-0.2-0.7-0.4-1.2-0.8-1.6c-0.3-0.4-0.7-0.7-1.1-0.9s-0.9-0.3-1.3-0.3c-0.5,0-0.9,0.1-1.3,0.3     s-0.8,0.5-1.1,0.9c-0.3,0.4-0.6,0.9-0.8,1.6s-0.3,1.5-0.3,2.4c0,1,0.1,1.8,0.3,2.4c0.2,0.6,0.4,1.2,0.8,1.6     c0.3,0.4,0.7,0.7,1.1,0.9s0.9,0.3,1.3,0.3c0.5,0,0.9-0.1,1.3-0.3s0.8-0.5,1.1-0.9c0.3-0.5,0.6-1,0.8-1.6     C166.1,13.6,166.2,12.9,166.2,11.9z"></path>
                        <path class="st14" d="M187,19.7h-4.8l-4.4-5.7h-1.4v5.7h-3.9V4.1h6.3c0.9,0,1.6,0.1,2.3,0.2c0.6,0.1,1.2,0.3,1.8,0.7     c0.6,0.4,1,0.8,1.3,1.4c0.3,0.5,0.5,1.2,0.5,2.1c0,1.2-0.3,2.2-0.8,2.9c-0.5,0.7-1.3,1.3-2.2,1.8L187,19.7z M180.7,8.9     c0-0.4-0.1-0.7-0.2-1c-0.2-0.3-0.4-0.5-0.8-0.7c-0.2-0.1-0.5-0.2-0.8-0.2s-0.7,0-1.1,0h-1.3v4.2h1.1c0.5,0,1,0,1.4-0.1     c0.4-0.1,0.7-0.2,1-0.4c0.3-0.2,0.4-0.4,0.6-0.7C180.6,9.7,180.7,9.3,180.7,8.9z"></path>
                        <path class="st14" d="M191.1,19.7V7.1h-4.6v-3h13.2v3h-4.6v12.6H191.1z"></path>
                        <path class="st14" d="M199.6,19.7l5.3-15.6h4.3l5.3,15.6h-4l-1-3.2h-4.9l-1,3.2H199.6z M208.6,13.7L207,8.5l-1.6,5.2H208.6z"></path>
                        <path class="st14" d="M226.4,19.7H216V4.1h3.9v12.6h6.5V19.7z"></path>
		</g>
                        <g>
                        <g>
                        <path class="st14" d="M44.4,35.4h-1v-3.5h-3.3v3.5h-1v-7.2h1V31h3.3v-2.8h1V35.4z"></path>
                        <path class="st14" d="M48.7,35.5c-0.5,0-0.9-0.1-1.3-0.2c-0.4-0.2-0.7-0.4-1-0.7s-0.5-0.7-0.7-1.2c-0.2-0.5-0.2-1-0.2-1.6      c0-0.6,0.1-1.1,0.2-1.6c0.2-0.5,0.4-0.8,0.7-1.2c0.3-0.3,0.6-0.6,1-0.7c0.4-0.2,0.8-0.3,1.3-0.3c0.2,0,0.5,0,0.7,0.1      c0.2,0,0.4,0.1,0.6,0.1c0.2,0,0.3,0.1,0.5,0.2c0.2,0.1,0.3,0.2,0.5,0.2v1.2h-0.1c-0.1-0.1-0.2-0.2-0.3-0.3      c-0.1-0.1-0.3-0.2-0.5-0.3c-0.2-0.1-0.4-0.2-0.6-0.2c-0.2-0.1-0.5-0.1-0.7-0.1c-0.3,0-0.6,0.1-0.9,0.2c-0.3,0.1-0.5,0.3-0.7,0.6      c-0.2,0.2-0.4,0.6-0.5,0.9c-0.1,0.4-0.2,0.8-0.2,1.3c0,0.5,0.1,0.9,0.2,1.3s0.3,0.7,0.5,0.9c0.2,0.2,0.4,0.4,0.7,0.5      c0.3,0.1,0.6,0.2,0.9,0.2c0.3,0,0.5,0,0.8-0.1c0.2-0.1,0.4-0.2,0.6-0.3c0.2-0.1,0.3-0.2,0.5-0.3c0.1-0.1,0.2-0.2,0.3-0.3h0.1      v1.1c-0.2,0.1-0.3,0.1-0.4,0.2c-0.1,0.1-0.3,0.1-0.5,0.2c-0.2,0.1-0.4,0.1-0.6,0.2S49,35.5,48.7,35.5z"></path>
                        <path class="st14" d="M58,35.4h-1v-6.2l-1.9,4.2h-0.6l-1.9-4.2v6.2h-0.9v-7.2h1.3l1.8,4l1.7-4H58V35.4z"></path>
                        <path class="st14" d="M62.2,35.5c-0.5,0-0.9-0.1-1.3-0.2c-0.4-0.2-0.7-0.4-1-0.7c-0.3-0.3-0.5-0.7-0.7-1.2      c-0.2-0.5-0.2-1-0.2-1.6c0-0.6,0.1-1.1,0.2-1.6c0.2-0.5,0.4-0.8,0.7-1.2c0.3-0.3,0.6-0.6,1-0.7c0.4-0.2,0.8-0.3,1.3-0.3      c0.2,0,0.5,0,0.7,0.1c0.2,0,0.4,0.1,0.6,0.1c0.2,0,0.3,0.1,0.5,0.2c0.2,0.1,0.3,0.2,0.5,0.2v1.2h-0.1c-0.1-0.1-0.2-0.2-0.3-0.3      c-0.1-0.1-0.3-0.2-0.5-0.3C63.4,29.1,63.2,29,63,29c-0.2-0.1-0.5-0.1-0.7-0.1c-0.3,0-0.6,0.1-0.9,0.2c-0.3,0.1-0.5,0.3-0.7,0.6      c-0.2,0.2-0.4,0.6-0.5,0.9C60,30.9,60,31.3,60,31.8c0,0.5,0.1,0.9,0.2,1.3c0.1,0.4,0.3,0.7,0.5,0.9c0.2,0.2,0.4,0.4,0.7,0.5      c0.3,0.1,0.6,0.2,0.9,0.2c0.3,0,0.5,0,0.8-0.1c0.2-0.1,0.4-0.2,0.6-0.3c0.2-0.1,0.3-0.2,0.5-0.3c0.1-0.1,0.2-0.2,0.3-0.3h0.1      v1.1c-0.2,0.1-0.3,0.1-0.4,0.2c-0.1,0.1-0.3,0.1-0.5,0.2c-0.2,0.1-0.4,0.1-0.6,0.2S62.5,35.5,62.2,35.5z"></path>
                        <path class="st14" d="M70.9,35.6c-0.4,0-0.8-0.1-1.1-0.2s-0.6-0.3-0.8-0.5c-0.3-0.3-0.4-0.6-0.5-0.9c-0.1-0.4-0.2-0.8-0.2-1.3      v-4.5h1v4.5c0,0.3,0,0.6,0.1,0.8c0,0.2,0.1,0.4,0.2,0.6c0.1,0.2,0.3,0.3,0.5,0.4c0.2,0.1,0.5,0.2,0.8,0.2c0.3,0,0.6-0.1,0.8-0.2      c0.2-0.1,0.4-0.2,0.5-0.4c0.1-0.2,0.2-0.4,0.2-0.6c0-0.2,0.1-0.5,0.1-0.8v-4.5h1v4.5c0,0.5-0.1,0.9-0.2,1.3      c-0.1,0.4-0.3,0.7-0.5,0.9c-0.2,0.2-0.5,0.4-0.8,0.5C71.8,35.5,71.4,35.6,70.9,35.6z"></path>
                        <path class="st14" d="M79.1,35.4h-0.9v-3.1c0-0.2,0-0.5,0-0.7c0-0.2-0.1-0.4-0.1-0.5c-0.1-0.1-0.2-0.2-0.3-0.3      c-0.1-0.1-0.3-0.1-0.5-0.1c-0.2,0-0.5,0.1-0.7,0.2c-0.2,0.1-0.5,0.3-0.7,0.5v4.1h-0.9V30h0.9v0.6c0.3-0.2,0.5-0.4,0.8-0.6      c0.3-0.1,0.5-0.2,0.8-0.2c0.5,0,0.9,0.2,1.2,0.5c0.3,0.4,0.4,0.9,0.4,1.5V35.4z"></path>
                        <path class="st14" d="M81.3,29.1h-1v-0.9h1V29.1z M81.3,35.4h-0.9V30h0.9V35.4z"></path>
                        <path class="st14" d="M86.8,30l-2,5.4H84L82,30h1l1.5,4.2l1.5-4.2H86.8z"></path>
                        <path class="st14" d="M89.8,35.5c-0.9,0-1.5-0.2-2-0.7c-0.5-0.5-0.7-1.2-0.7-2.1c0-0.9,0.2-1.6,0.7-2.1c0.5-0.5,1.1-0.8,1.8-0.8      c0.3,0,0.6,0,0.9,0.1s0.5,0.2,0.7,0.5c0.2,0.2,0.3,0.5,0.4,0.8c0.1,0.3,0.2,0.7,0.2,1.1v0.5H88c0,0.6,0.2,1.1,0.5,1.4      s0.8,0.5,1.3,0.5c0.2,0,0.4,0,0.6-0.1c0.2,0,0.4-0.1,0.5-0.2c0.2-0.1,0.3-0.1,0.4-0.2c0.1-0.1,0.2-0.1,0.3-0.2h0.1v1      c-0.1,0-0.2,0.1-0.4,0.2c-0.2,0.1-0.3,0.1-0.4,0.1c-0.2,0-0.3,0.1-0.5,0.1C90.2,35.5,90,35.5,89.8,35.5z M90.9,32.1      c0-0.2,0-0.5-0.1-0.6c-0.1-0.2-0.1-0.3-0.2-0.5c-0.1-0.1-0.2-0.2-0.4-0.3c-0.2-0.1-0.4-0.1-0.6-0.1c-0.2,0-0.4,0-0.6,0.1      c-0.2,0.1-0.3,0.2-0.5,0.3c-0.1,0.1-0.2,0.3-0.3,0.5S88,31.9,88,32.1H90.9z"></path>
                        <path class="st14" d="M95.5,31L95.5,31c-0.1,0-0.2,0-0.3,0s-0.2,0-0.3,0c-0.2,0-0.5,0.1-0.7,0.2c-0.2,0.1-0.5,0.3-0.7,0.5v3.9      h-0.9V30h0.9v0.8c0.3-0.3,0.6-0.5,0.9-0.6c0.2-0.1,0.5-0.2,0.7-0.2c0.1,0,0.2,0,0.2,0s0.1,0,0.2,0V31z"></path>
                        <path class="st14" d="M97.7,35.5c-0.4,0-0.7,0-1-0.1c-0.3-0.1-0.6-0.2-0.8-0.3v-1h0c0.1,0.1,0.2,0.1,0.3,0.2      c0.1,0.1,0.2,0.2,0.4,0.2c0.2,0.1,0.3,0.1,0.5,0.2c0.2,0.1,0.4,0.1,0.6,0.1c0.1,0,0.3,0,0.5-0.1c0.2,0,0.3-0.1,0.4-0.1      c0.1-0.1,0.2-0.2,0.2-0.2c0-0.1,0.1-0.2,0.1-0.4c0-0.2-0.1-0.4-0.2-0.5c-0.1-0.1-0.3-0.2-0.6-0.3c-0.1,0-0.3-0.1-0.5-0.1      c-0.2,0-0.4-0.1-0.5-0.1c-0.4-0.1-0.7-0.3-0.9-0.6c-0.2-0.3-0.3-0.6-0.3-0.9c0-0.5,0.2-0.9,0.6-1.2s0.9-0.5,1.5-0.5      c0.3,0,0.6,0,0.9,0.1c0.3,0.1,0.6,0.2,0.8,0.3v1h0c-0.2-0.2-0.5-0.3-0.8-0.4c-0.3-0.1-0.6-0.2-0.9-0.2c-0.3,0-0.6,0.1-0.8,0.2      c-0.2,0.1-0.3,0.3-0.3,0.6c0,0.2,0.1,0.4,0.2,0.5s0.3,0.2,0.6,0.3c0.1,0,0.3,0.1,0.5,0.1c0.2,0,0.3,0.1,0.5,0.1      c0.4,0.1,0.7,0.3,0.9,0.5c0.2,0.2,0.3,0.6,0.3,1c0,0.2,0,0.5-0.1,0.7c-0.1,0.2-0.2,0.4-0.4,0.5c-0.2,0.2-0.4,0.3-0.7,0.4      C98.3,35.5,98,35.5,97.7,35.5z"></path>
                        <path class="st14" d="M101.6,29.1h-1v-0.9h1V29.1z M101.6,35.4h-0.9V30h0.9V35.4z"></path>
                        <path class="st14" d="M104.5,35.5c-0.5,0-0.9-0.1-1.2-0.4c-0.3-0.3-0.4-0.7-0.4-1.3v-3h-0.6V30h0.6v-1.6h0.9V30h1.7v0.8h-1.7      v2.6c0,0.3,0,0.5,0,0.6s0,0.3,0.1,0.4c0.1,0.1,0.1,0.2,0.3,0.3s0.3,0.1,0.5,0.1c0.1,0,0.3,0,0.4-0.1c0.1,0,0.2-0.1,0.3-0.1h0.1      v0.8c-0.2,0-0.3,0.1-0.5,0.1C104.8,35.5,104.7,35.5,104.5,35.5z"></path>
                        <path class="st14" d="M110.4,30l-2.9,7.4h-1l1-2.3l-2-5.2h1l1.5,4l1.5-4H110.4z"></path>
                        <path class="st14" d="M118.6,32.7c0,0.9-0.2,1.6-0.7,2.1s-1,0.7-1.7,0.7c-0.7,0-1.3-0.3-1.8-0.8c-0.4-0.5-0.6-1.2-0.6-2.1      c0-0.9,0.2-1.6,0.7-2.1s1-0.8,1.7-0.8c0.7,0,1.3,0.3,1.7,0.8S118.6,31.8,118.6,32.7z M117.6,32.7c0-0.7-0.1-1.2-0.4-1.6      c-0.3-0.3-0.6-0.5-1.1-0.5c-0.5,0-0.8,0.2-1.1,0.5c-0.3,0.3-0.4,0.9-0.4,1.6c0,0.7,0.1,1.2,0.4,1.5c0.3,0.4,0.6,0.5,1.1,0.5      c0.5,0,0.8-0.2,1.1-0.5C117.5,33.9,117.6,33.4,117.6,32.7z"></path>
                        <path class="st14" d="M122.3,28.7L122.3,28.7c-0.1,0-0.2-0.1-0.4-0.1s-0.3,0-0.4,0c-0.4,0-0.7,0.1-0.8,0.3      c-0.2,0.2-0.2,0.5-0.2,0.9V30h1.5v0.8h-1.5v4.7h-0.9v-4.7H119V30h0.6v-0.2c0-0.7,0.2-1.2,0.5-1.5c0.3-0.3,0.8-0.5,1.3-0.5      c0.2,0,0.3,0,0.5,0c0.2,0,0.3,0,0.4,0.1V28.7z"></path>
                        <path class="st14" d="M125.8,35.4v-7.2h4.5V29h-3.5v2h3.3v0.9h-3.3v2.7h3.5v0.9H125.8z"></path>
                        <path class="st14" d="M133.4,35.5c-0.4,0-0.7-0.1-1-0.2c-0.3-0.1-0.6-0.3-0.8-0.5c-0.2-0.2-0.4-0.5-0.5-0.9      c-0.1-0.4-0.2-0.8-0.2-1.3c0-0.5,0.1-0.9,0.2-1.2c0.1-0.3,0.3-0.6,0.5-0.9c0.2-0.2,0.5-0.4,0.8-0.5c0.3-0.1,0.7-0.2,1-0.2      c0.3,0,0.6,0,0.9,0.1c0.3,0.1,0.5,0.2,0.7,0.3v1H135c-0.1-0.1-0.1-0.1-0.2-0.2c-0.1-0.1-0.2-0.1-0.4-0.2      c-0.1-0.1-0.3-0.1-0.4-0.2c-0.2,0-0.3-0.1-0.5-0.1c-0.5,0-0.8,0.2-1.1,0.5c-0.3,0.4-0.4,0.9-0.4,1.5c0,0.6,0.1,1.1,0.4,1.5      c0.3,0.4,0.7,0.5,1.1,0.5c0.3,0,0.6-0.1,0.8-0.2c0.3-0.1,0.5-0.3,0.7-0.5h0.1v1c-0.1,0-0.2,0.1-0.3,0.2      c-0.1,0.1-0.3,0.1-0.4,0.1c-0.2,0-0.3,0.1-0.4,0.1C133.8,35.5,133.6,35.5,133.4,35.5z"></path>
                        <path class="st14" d="M140.3,32.7c0,0.9-0.2,1.6-0.7,2.1s-1,0.7-1.7,0.7c-0.7,0-1.3-0.3-1.8-0.8c-0.4-0.5-0.6-1.2-0.6-2.1      c0-0.9,0.2-1.6,0.7-2.1s1-0.8,1.7-0.8c0.7,0,1.3,0.3,1.7,0.8S140.3,31.8,140.3,32.7z M139.3,32.7c0-0.7-0.1-1.2-0.4-1.6      c-0.3-0.3-0.6-0.5-1.1-0.5c-0.5,0-0.8,0.2-1.1,0.5c-0.3,0.3-0.4,0.9-0.4,1.6c0,0.7,0.1,1.2,0.4,1.5c0.3,0.4,0.6,0.5,1.1,0.5      c0.5,0,0.8-0.2,1.1-0.5C139.2,33.9,139.3,33.4,139.3,32.7z"></path>
                        <path class="st14" d="M145.4,35.4h-0.9v-3.1c0-0.2,0-0.5,0-0.7c0-0.2-0.1-0.4-0.1-0.5c-0.1-0.1-0.2-0.2-0.3-0.3      c-0.1-0.1-0.3-0.1-0.5-0.1c-0.2,0-0.5,0.1-0.7,0.2c-0.2,0.1-0.5,0.3-0.7,0.5v4.1h-0.9V30h0.9v0.6c0.3-0.2,0.5-0.4,0.8-0.6      c0.3-0.1,0.5-0.2,0.8-0.2c0.5,0,0.9,0.2,1.2,0.5c0.3,0.4,0.4,0.9,0.4,1.5V35.4z"></path>
                        <path class="st14" d="M151.1,32.7c0,0.9-0.2,1.6-0.7,2.1s-1,0.7-1.7,0.7c-0.7,0-1.3-0.3-1.8-0.8c-0.4-0.5-0.6-1.2-0.6-2.1      c0-0.9,0.2-1.6,0.7-2.1s1-0.8,1.7-0.8c0.7,0,1.3,0.3,1.7,0.8S151.1,31.8,151.1,32.7z M150.2,32.7c0-0.7-0.1-1.2-0.4-1.6      c-0.3-0.3-0.6-0.5-1.1-0.5c-0.5,0-0.8,0.2-1.1,0.5c-0.3,0.3-0.4,0.9-0.4,1.6c0,0.7,0.1,1.2,0.4,1.5c0.3,0.4,0.6,0.5,1.1,0.5      c0.5,0,0.8-0.2,1.1-0.5C150.1,33.9,150.2,33.4,150.2,32.7z"></path>
                        <path class="st14" d="M158.2,35.4v-3.1c0-0.2,0-0.5,0-0.7c0-0.2-0.1-0.4-0.1-0.5c-0.1-0.1-0.2-0.2-0.3-0.3      c-0.1-0.1-0.3-0.1-0.5-0.1c-0.2,0-0.4,0.1-0.6,0.2c-0.2,0.1-0.4,0.3-0.7,0.5c0,0.1,0,0.1,0,0.2c0,0.1,0,0.2,0,0.3v3.6h-0.9v-3.1      c0-0.2,0-0.5,0-0.7c0-0.2-0.1-0.4-0.1-0.5c-0.1-0.1-0.2-0.2-0.3-0.3s-0.3-0.1-0.5-0.1c-0.2,0-0.4,0.1-0.6,0.2      c-0.2,0.1-0.4,0.3-0.6,0.5v4.1h-0.9V30h0.9v0.6c0.2-0.2,0.5-0.4,0.7-0.6c0.2-0.1,0.5-0.2,0.8-0.2c0.3,0,0.6,0.1,0.8,0.2      c0.2,0.1,0.4,0.4,0.6,0.7c0.3-0.3,0.5-0.5,0.8-0.7c0.3-0.2,0.5-0.2,0.8-0.2c0.2,0,0.4,0,0.6,0.1c0.2,0.1,0.4,0.2,0.5,0.4      c0.1,0.2,0.3,0.4,0.3,0.6c0.1,0.2,0.1,0.6,0.1,0.9v3.6H158.2z"></path>
                        <path class="st14" d="M161.4,29.1h-1v-0.9h1V29.1z M161.3,35.4h-0.9V30h0.9V35.4z"></path>
                        <path class="st14" d="M164.8,35.5c-0.4,0-0.7-0.1-1-0.2c-0.3-0.1-0.6-0.3-0.8-0.5c-0.2-0.2-0.4-0.5-0.5-0.9      c-0.1-0.4-0.2-0.8-0.2-1.3c0-0.5,0.1-0.9,0.2-1.2c0.1-0.3,0.3-0.6,0.5-0.9s0.5-0.4,0.8-0.5c0.3-0.1,0.7-0.2,1-0.2      c0.3,0,0.6,0,0.9,0.1c0.3,0.1,0.5,0.2,0.7,0.3v1h-0.1c-0.1-0.1-0.1-0.1-0.2-0.2c-0.1-0.1-0.2-0.1-0.4-0.2      c-0.1-0.1-0.3-0.1-0.4-0.2c-0.2,0-0.3-0.1-0.5-0.1c-0.5,0-0.8,0.2-1.1,0.5c-0.3,0.4-0.4,0.9-0.4,1.5c0,0.6,0.1,1.1,0.4,1.5      c0.3,0.4,0.7,0.5,1.1,0.5c0.3,0,0.6-0.1,0.8-0.2c0.3-0.1,0.5-0.3,0.7-0.5h0.1v1c-0.1,0-0.2,0.1-0.3,0.2      c-0.1,0.1-0.3,0.1-0.4,0.1c-0.2,0-0.3,0.1-0.4,0.1C165.1,35.5,165,35.5,164.8,35.5z"></path>
                        <path class="st14" d="M168.7,35.5c-0.4,0-0.7,0-1-0.1c-0.3-0.1-0.6-0.2-0.8-0.3v-1h0c0.1,0.1,0.2,0.1,0.3,0.2      c0.1,0.1,0.2,0.2,0.4,0.2c0.2,0.1,0.3,0.1,0.5,0.2c0.2,0.1,0.4,0.1,0.6,0.1c0.1,0,0.3,0,0.5-0.1c0.2,0,0.3-0.1,0.4-0.1      c0.1-0.1,0.2-0.2,0.2-0.2c0-0.1,0.1-0.2,0.1-0.4c0-0.2-0.1-0.4-0.2-0.5c-0.1-0.1-0.3-0.2-0.6-0.3c-0.1,0-0.3-0.1-0.5-0.1      c-0.2,0-0.4-0.1-0.5-0.1c-0.4-0.1-0.7-0.3-0.9-0.6c-0.2-0.3-0.3-0.6-0.3-0.9c0-0.5,0.2-0.9,0.6-1.2c0.4-0.3,0.9-0.5,1.5-0.5      c0.3,0,0.6,0,0.9,0.1c0.3,0.1,0.6,0.2,0.8,0.3v1h0c-0.2-0.2-0.5-0.3-0.8-0.4c-0.3-0.1-0.6-0.2-0.9-0.2c-0.3,0-0.6,0.1-0.8,0.2      c-0.2,0.1-0.3,0.3-0.3,0.6c0,0.2,0.1,0.4,0.2,0.5c0.1,0.1,0.3,0.2,0.6,0.3c0.1,0,0.3,0.1,0.5,0.1c0.2,0,0.3,0.1,0.5,0.1      c0.4,0.1,0.7,0.3,0.9,0.5c0.2,0.2,0.3,0.6,0.3,1c0,0.2,0,0.5-0.1,0.7c-0.1,0.2-0.2,0.4-0.4,0.5c-0.2,0.2-0.4,0.3-0.7,0.4      C169.3,35.5,169,35.5,168.7,35.5z"></path>
                        <path class="st14" d="M177.7,34.8c-0.1,0.1-0.2,0.1-0.3,0.2c-0.1,0.1-0.2,0.2-0.4,0.2c-0.2,0.1-0.3,0.1-0.5,0.2      s-0.4,0.1-0.6,0.1c-0.2,0-0.4,0-0.6-0.1c-0.2-0.1-0.4-0.2-0.5-0.4c-0.1-0.1-0.3-0.3-0.3-0.6c-0.1-0.2-0.1-0.4-0.1-0.7      c0-0.4,0.1-0.7,0.2-1c0.2-0.3,0.4-0.5,0.7-0.6c0.3-0.1,0.7-0.2,1.1-0.3c0.4-0.1,0.9-0.1,1.3-0.1v-0.2c0-0.2,0-0.4-0.1-0.5      c-0.1-0.1-0.2-0.2-0.3-0.3c-0.1-0.1-0.3-0.1-0.4-0.1c-0.2,0-0.3,0-0.5,0c-0.2,0-0.5,0-0.7,0.1s-0.6,0.2-0.8,0.3h-0.1v-0.9      c0.2,0,0.4-0.1,0.7-0.2c0.3-0.1,0.6-0.1,0.9-0.1c0.4,0,0.7,0,0.9,0.1c0.3,0.1,0.5,0.2,0.7,0.3c0.2,0.1,0.3,0.3,0.4,0.6      c0.1,0.2,0.1,0.5,0.1,0.9v3.7h-0.9V34.8z M177.7,34.1v-1.5c-0.2,0-0.5,0-0.8,0.1c-0.3,0-0.6,0.1-0.8,0.1      c-0.2,0.1-0.4,0.2-0.6,0.3c-0.2,0.2-0.2,0.4-0.2,0.6c0,0.3,0.1,0.5,0.3,0.7c0.2,0.2,0.4,0.2,0.8,0.2c0.3,0,0.5-0.1,0.8-0.2      C177.3,34.4,177.5,34.2,177.7,34.1z"></path>
                        <path class="st14" d="M184.1,35.4h-0.9v-3.1c0-0.2,0-0.5,0-0.7c0-0.2-0.1-0.4-0.1-0.5c-0.1-0.1-0.2-0.2-0.3-0.3      s-0.3-0.1-0.5-0.1c-0.2,0-0.5,0.1-0.7,0.2c-0.2,0.1-0.5,0.3-0.7,0.5v4.1h-0.9V30h0.9v0.6c0.3-0.2,0.5-0.4,0.8-0.6      c0.3-0.1,0.5-0.2,0.8-0.2c0.5,0,0.9,0.2,1.2,0.5c0.3,0.4,0.4,0.9,0.4,1.5V35.4z"></path>
                        <path class="st14" d="M189.5,35.4h-0.9v-0.6c-0.1,0.1-0.3,0.2-0.4,0.3s-0.2,0.1-0.4,0.2c-0.1,0.1-0.3,0.1-0.4,0.1      c-0.1,0-0.3,0.1-0.5,0.1c-0.3,0-0.6-0.1-0.8-0.2c-0.2-0.1-0.5-0.3-0.6-0.5c-0.2-0.2-0.3-0.5-0.4-0.9c-0.1-0.4-0.1-0.8-0.1-1.2      c0-0.5,0.1-0.9,0.2-1.2c0.1-0.3,0.3-0.7,0.5-0.9c0.2-0.2,0.4-0.4,0.7-0.6c0.3-0.1,0.6-0.2,0.9-0.2c0.3,0,0.5,0,0.7,0.1      c0.2,0.1,0.4,0.2,0.6,0.3v-2.4h0.9V35.4z M188.6,34.1V31c-0.2-0.1-0.4-0.2-0.6-0.2c-0.2,0-0.4-0.1-0.6-0.1      c-0.5,0-0.8,0.2-1.1,0.5c-0.3,0.4-0.4,0.9-0.4,1.5c0,0.6,0.1,1.1,0.3,1.5c0.2,0.3,0.5,0.5,1,0.5c0.2,0,0.5-0.1,0.7-0.2      C188.2,34.4,188.4,34.3,188.6,34.1z"></path>
                        <path class="st14" d="M198.3,29H195v2h3.2v0.9H195v3.5h-1v-7.2h4.3V29z"></path>
                        <path class="st14" d="M200.1,29.1h-1v-0.9h1V29.1z M200,35.4h-0.9V30h0.9V35.4z"></path>
                        <path class="st14" d="M205.6,35.4h-0.9v-3.1c0-0.2,0-0.5,0-0.7c0-0.2-0.1-0.4-0.1-0.5c-0.1-0.1-0.2-0.2-0.3-0.3      c-0.1-0.1-0.3-0.1-0.5-0.1c-0.2,0-0.5,0.1-0.7,0.2c-0.2,0.1-0.5,0.3-0.7,0.5v4.1h-0.9V30h0.9v0.6c0.3-0.2,0.5-0.4,0.8-0.6      c0.3-0.1,0.5-0.2,0.8-0.2c0.5,0,0.9,0.2,1.2,0.5c0.3,0.4,0.4,0.9,0.4,1.5V35.4z"></path>
                        <path class="st14" d="M209.9,34.8c-0.1,0.1-0.2,0.1-0.3,0.2c-0.1,0.1-0.2,0.2-0.4,0.2c-0.2,0.1-0.3,0.1-0.5,0.2      s-0.4,0.1-0.6,0.1c-0.2,0-0.4,0-0.6-0.1c-0.2-0.1-0.4-0.2-0.5-0.4c-0.1-0.1-0.3-0.3-0.3-0.6c-0.1-0.2-0.1-0.4-0.1-0.7      c0-0.4,0.1-0.7,0.2-1c0.2-0.3,0.4-0.5,0.7-0.6c0.3-0.1,0.7-0.2,1.1-0.3c0.4-0.1,0.9-0.1,1.3-0.1v-0.2c0-0.2,0-0.4-0.1-0.5      c-0.1-0.1-0.2-0.2-0.3-0.3c-0.1-0.1-0.3-0.1-0.4-0.1c-0.2,0-0.3,0-0.5,0c-0.2,0-0.5,0-0.7,0.1s-0.6,0.2-0.8,0.3h-0.1v-0.9      c0.2,0,0.4-0.1,0.7-0.2c0.3-0.1,0.6-0.1,0.9-0.1c0.4,0,0.7,0,0.9,0.1c0.3,0.1,0.5,0.2,0.7,0.3c0.2,0.1,0.3,0.3,0.4,0.6      c0.1,0.2,0.1,0.5,0.1,0.9v3.7h-0.9V34.8z M209.9,34.1v-1.5c-0.2,0-0.5,0-0.8,0.1c-0.3,0-0.6,0.1-0.8,0.1      c-0.2,0.1-0.4,0.2-0.6,0.3c-0.2,0.2-0.2,0.4-0.2,0.6c0,0.3,0.1,0.5,0.3,0.7c0.2,0.2,0.4,0.2,0.8,0.2c0.3,0,0.5-0.1,0.8-0.2      C209.5,34.4,209.7,34.2,209.9,34.1z"></path>
                        <path class="st14" d="M216.3,35.4h-0.9v-3.1c0-0.2,0-0.5,0-0.7c0-0.2-0.1-0.4-0.1-0.5c-0.1-0.1-0.2-0.2-0.3-0.3      s-0.3-0.1-0.5-0.1c-0.2,0-0.5,0.1-0.7,0.2c-0.2,0.1-0.5,0.3-0.7,0.5v4.1h-0.9V30h0.9v0.6c0.3-0.2,0.5-0.4,0.8-0.6      c0.3-0.1,0.5-0.2,0.8-0.2c0.5,0,0.9,0.2,1.2,0.5c0.3,0.4,0.4,0.9,0.4,1.5V35.4z"></path>
                        <path class="st14" d="M219.7,35.5c-0.4,0-0.7-0.1-1-0.2c-0.3-0.1-0.6-0.3-0.8-0.5c-0.2-0.2-0.4-0.5-0.5-0.9      c-0.1-0.4-0.2-0.8-0.2-1.3c0-0.5,0.1-0.9,0.2-1.2c0.1-0.3,0.3-0.6,0.5-0.9c0.2-0.2,0.5-0.4,0.8-0.5c0.3-0.1,0.7-0.2,1-0.2      c0.3,0,0.6,0,0.9,0.1c0.3,0.1,0.5,0.2,0.7,0.3v1h-0.1c-0.1-0.1-0.1-0.1-0.2-0.2c-0.1-0.1-0.2-0.1-0.4-0.2      c-0.1-0.1-0.3-0.1-0.4-0.2c-0.2,0-0.3-0.1-0.5-0.1c-0.5,0-0.8,0.2-1.1,0.5c-0.3,0.4-0.4,0.9-0.4,1.5c0,0.6,0.1,1.1,0.4,1.5      c0.3,0.4,0.7,0.5,1.1,0.5c0.3,0,0.6-0.1,0.8-0.2c0.3-0.1,0.5-0.3,0.7-0.5h0.1v1c-0.1,0-0.2,0.1-0.3,0.2      c-0.1,0.1-0.3,0.1-0.4,0.1c-0.2,0-0.3,0.1-0.4,0.1C220.1,35.5,219.9,35.5,219.7,35.5z"></path>
                        <path class="st14" d="M224.5,35.5c-0.9,0-1.5-0.2-2-0.7c-0.5-0.5-0.7-1.2-0.7-2.1c0-0.9,0.2-1.6,0.7-2.1      c0.5-0.5,1.1-0.8,1.8-0.8c0.3,0,0.6,0,0.9,0.1c0.3,0.1,0.5,0.2,0.7,0.5c0.2,0.2,0.3,0.5,0.4,0.8c0.1,0.3,0.2,0.7,0.2,1.1v0.5      h-3.7c0,0.6,0.2,1.1,0.5,1.4c0.3,0.3,0.8,0.5,1.3,0.5c0.2,0,0.4,0,0.6-0.1s0.4-0.1,0.5-0.2c0.2-0.1,0.3-0.1,0.4-0.2      c0.1-0.1,0.2-0.1,0.3-0.2h0.1v1c-0.1,0-0.2,0.1-0.4,0.2c-0.2,0.1-0.3,0.1-0.4,0.1c-0.2,0-0.3,0.1-0.5,0.1      C224.9,35.5,224.7,35.5,224.5,35.5z M225.5,32.1c0-0.2,0-0.5-0.1-0.6c-0.1-0.2-0.1-0.3-0.2-0.5c-0.1-0.1-0.2-0.2-0.4-0.3      c-0.2-0.1-0.4-0.1-0.6-0.1c-0.2,0-0.4,0-0.6,0.1c-0.2,0.1-0.3,0.2-0.5,0.3c-0.1,0.1-0.2,0.3-0.3,0.5c-0.1,0.2-0.1,0.4-0.1,0.6      H225.5z"></path>
			</g>
		</g>
	</g>
</g>
<g id="Texture">
</g>
<g id="Designed_by_Freepik">
</g>
</svg>